<?xml version="1.0" standalone="no"?>
<!DOCTYPE svg PUBLIC "-//W3C//DTD SVG 20010904//EN"
 "http://www.w3.org/TR/2001/REC-SVG-20010904/DTD/svg10.dtd">
<svg version="1.0" xmlns="http://www.w3.org/2000/svg"
 width="700.000000pt" height="700.000000pt" viewBox="0 0 700.000000 700.000000"
 preserveAspectRatio="xMidYMid meet">
<metadata>
Created by potrace 1.14, written by Peter Selinger 2001-2017
</metadata>
<g transform="translate(0.000000,700.000000) scale(0.100000,-0.100000)"
fill="#000000" stroke="none">
<path d="M1355 6993 c-279 -36 -534 -138 -750 -299 -80 -60 -217 -190 -260
-249 -17 -22 -33 -42 -36 -45 -17 -14 -104 -153 -142 -229 -77 -150 -123 -293
-151 -471 -22 -143 -22 -4257 0 -4400 105 -666 599 -1168 1258 -1279 107 -18
196 -19 2256 -17 1180 1 2159 5 2175 9 156 32 272 64 290 79 5 4 15 8 23 8 22
0 180 77 262 127 388 241 654 654 708 1103 9 74 9 4281 0 4345 -7 49 -12 78
-24 140 -7 35 -50 176 -67 220 -7 17 -37 80 -68 141 -200 397 -593 700 -1022
788 -39 8 -85 18 -102 23 -30 7 -4292 14 -4350 6z"/>
</g>
</svg>
